<svg width="43" height="42" viewBox="0 0 43 42" fill="#000000" xmlns="http://www.w3.org/2000/svg">
<path d="M21.2839 0C16.714 0 12.4786 1.43374 9.00765 3.86306H8.97674V3.88524C3.54966 7.69284 0 13.9436 0 20.9986C0 32.5795 9.54727 42 21.2839 42C33.0206 42 42.5678 32.5795 42.5678 20.9986C42.5678 9.41776 33.0206 0 21.2839 0ZM36.9525 8.73278L32.5147 16.3175V4.66174C34.1954 5.79043 35.6905 7.16593 36.9525 8.73278ZM21.2839 1.25071C24.8954 1.25071 28.2821 2.20469 31.2106 3.86028H11.3572C14.2858 2.20191 17.6724 1.25071 21.2839 1.25071ZM9.40955 5.11377H31.2443V18.4833L30.151 20.3497H12.206L5.49453 8.88253C6.62154 7.45711 7.93685 6.18699 9.40955 5.11377ZM21.9669 36.8391L30.8818 21.6032H31.2415V36.8391H21.9669ZM21.1771 35.6882L12.9367 21.6032H29.4203L21.1799 35.6882H21.1771ZM10.7389 20.3525H1.2844C1.41087 16.5255 2.63906 12.9702 4.67667 9.98904L10.7417 20.3525H10.7389ZM1.28159 21.6032H11.4725L20.3874 36.8391H9.33929C4.59517 33.3476 1.4727 27.8318 1.28159 21.6032ZM11.2673 38.0926H31.2443V38.1231C28.3074 39.7925 24.9095 40.7548 21.2839 40.7548C17.6584 40.7548 14.2183 39.7842 11.2701 38.0953L11.2673 38.0926ZM32.5091 37.3438V18.8189L37.7703 9.82542C39.9906 13.0063 41.2947 16.8555 41.2947 20.9986C41.2947 27.7846 37.8069 33.7803 32.5091 37.3383V37.3438Z" fill="#000000"/>
</svg>
