<?xml version="1.0" encoding="iso-8859-1"?>
<!-- Generator: Adobe Illustrator 23.0.6, SVG Export Plug-In . SVG Version: 6.00 Build 0)  -->
<svg version="1.1" id="Layer_1" xmlns="http://www.w3.org/2000/svg" xmlns:xlink="http://www.w3.org/1999/xlink" x="0px" y="0px"
	 viewBox="0 0 64 64" style="enable-background:new 0 0 64 64;" xml:space="preserve">

<defs>  
  <linearGradient id="logo-gradient" x1="50%" y1="0%" x2="50%" y2="100%" >           
		<stop offset="0%" stop-color="#7A5FFF">
			<animate attributeName="stop-color" values="#7A5FFF; #01FF89; #7A5FFF" dur="5s" repeatCount="indefinite"></animate>
		</stop>
		<stop offset="100%" stop-color="#01FF89">
			<animate attributeName="stop-color" values="#01FF89; #7A5FFF; #01FF89" dur="5s" repeatCount="indefinite"></animate>
		</stop>
		<animateTransform attributeName="gradientTransform" type="rotate" from="0 .5 .5" to="360 .5 .5"
      dur="8s" repeatCount="indefinite" />
  </linearGradient> 
</defs>


<g>
	<circle stroke="url('#logo-gradient')" fill="url('#logo-gradient')" cx="32" cy="33" r="6"/>
</g>
<g>
	<g>
		<path stroke="url('#logo-gradient')" fill="url('#logo-gradient')" stroke-width="2" d="M32,46C15.178,46,2,40.29,2,33s13.178-13,30-13s30,5.71,30,13S48.822,46,32,46z M32,22
			C16.822,22,4,27.037,4,33s12.822,11,28,11s28-5.037,28-11S47.178,22,32,22z"/>
	</g>
</g>
<g>
	<path stroke="url('#logo-gradient')" fill="url('#logo-gradient')" stroke-width="2" d="M20.316,59.827c-1.222,0-2.335-0.28-3.316-0.847c-3.149-1.818-4.425-6.291-3.593-12.596
		c0.793-6.004,3.397-13.065,7.334-19.885c3.938-6.819,8.752-12.606,13.555-16.295C39.341,6.332,43.853,5.202,47,7.02l0,0
		c3.149,1.818,4.425,6.291,3.593,12.596C49.8,25.619,47.195,32.681,43.259,39.5c-3.938,6.819-8.752,12.606-13.555,16.295
		C26.232,58.46,23.013,59.827,20.316,59.827z M43.684,8.179c-2.234,0-5.079,1.239-8.17,3.613c-4.6,3.532-9.23,9.11-13.04,15.708
		c-3.809,6.598-6.324,13.396-7.084,19.146c-0.709,5.371,0.243,9.234,2.61,10.602s6.187,0.26,10.486-3.04
		c4.6-3.532,9.23-9.11,13.04-15.708c3.809-6.598,6.324-13.396,7.084-19.146c0.709-5.371-0.243-9.234-2.61-10.602l0,0
		C45.336,8.368,44.556,8.179,43.684,8.179z"/>
</g>
<g>
	<g>
		<path stroke="url('#logo-gradient')" fill="url('#logo-gradient')" stroke-width="2" d="M43.684,59.827c-2.696,0-5.916-1.367-9.388-4.032c-4.803-3.688-9.617-9.476-13.555-16.295
			c-3.937-6.819-6.541-13.881-7.334-19.885C12.575,13.311,13.851,8.838,17,7.02c3.15-1.816,7.661-0.686,12.704,3.186
			c4.803,3.688,9.617,9.476,13.555,16.295c3.937,6.819,6.541,13.881,7.334,19.885C51.425,52.689,50.149,57.162,47,58.98
			C46.019,59.547,44.904,59.827,43.684,59.827z M20.316,8.179c-0.873,0-1.651,0.189-2.316,0.573l0,0
			c-2.367,1.367-3.319,5.23-2.61,10.602c0.76,5.75,3.275,12.549,7.084,19.146c3.81,6.598,8.44,12.176,13.04,15.708
			c4.298,3.3,8.119,4.407,10.486,3.04s3.319-5.23,2.61-10.602c-0.76-5.75-3.275-12.549-7.084-19.146
			c-3.81-6.598-8.44-12.176-13.04-15.708C25.396,9.419,22.551,8.179,20.316,8.179z"/>
	</g>
</g>
</svg>